<svg width="512" height="512" viewBox="0 0 512 512" fill="none" xmlns="http://www.w3.org/2000/svg">
<path fill-rule="evenodd" clip-rule="evenodd" d="M256 59C147.2 59 59 147.2 59 256C59 364.8 147.2 453 256 453C364.8 453 453 364.8 453 256C453 147.2 364.8 59 256 59ZM339.757 211.592C339.757 189.86 322.14 172.243 300.408 172.243H211.592C189.86 172.243 172.243 189.86 172.243 211.592V300.408C172.243 322.14 189.86 339.757 211.592 339.757H300.408C322.14 339.757 339.757 322.14 339.757 300.408V211.592ZM211.592 161C183.651 161 161 183.651 161 211.592V300.408C161 328.349 183.651 351 211.592 351H300.408C328.349 351 351 328.349 351 300.408V211.592C351 183.651 328.349 161 300.408 161H211.592ZM256 286.355C272.765 286.355 286.355 272.765 286.355 256C286.355 239.235 272.765 225.645 256 225.645C239.235 225.645 225.645 239.235 225.645 256C225.645 272.765 239.235 286.355 256 286.355ZM256 295.911C278.042 295.911 295.911 278.042 295.911 256C295.911 233.958 278.042 216.089 256 216.089C233.958 216.089 216.089 233.958 216.089 256C216.089 278.042 233.958 295.911 256 295.911ZM313.337 202.036C313.337 209.797 307.045 216.089 299.284 216.089C291.523 216.089 285.231 209.797 285.231 202.036C285.231 194.274 291.523 187.982 299.284 187.982C307.045 187.982 313.337 194.274 313.337 202.036Z" fill="black"/>
</svg>
