<svg width="64" height="64" viewBox="0 0 64 64" fill="none" xmlns="http://www.w3.org/2000/svg">
<path fill-rule="evenodd" clip-rule="evenodd" d="M32 61C48.0163 61 61 48.0163 61 32C61 15.9837 48.0163 3 32 3C15.9837 3 3 15.9837 3 32C3 48.0163 15.9837 61 32 61ZM51.2521 32.3065C51.2521 29.9564 49.3573 28.049 47.0227 28.049C45.8723 28.049 44.8573 28.4918 44.1129 29.2411C41.2369 27.1635 37.2444 25.8011 32.8459 25.6308L34.7745 16.5367L41.0339 17.8651C41.1016 19.4659 42.4212 20.7602 44.0453 20.7602C45.7032 20.7602 47.0566 19.3978 47.0566 17.7288C47.0566 16.0599 45.7032 14.6975 44.0453 14.6975C42.861 14.6975 41.846 15.3787 41.3723 16.4005L34.3684 14.9018C34.1654 14.8678 33.9624 14.9018 33.7933 15.004C33.6241 15.1062 33.5226 15.2765 33.4549 15.4809L31.3233 25.6308C26.8232 25.767 22.7969 27.0953 19.8871 29.2411C19.1427 28.5259 18.0938 28.049 16.9773 28.049C14.6427 28.049 12.7479 29.9564 12.7479 32.3065C12.7479 34.0436 13.7629 35.5082 15.2517 36.1894C15.184 36.5981 15.1502 37.0409 15.1502 37.4837C15.1502 44.0232 22.6954 49.3025 32.0338 49.3025C41.3723 49.3025 48.9175 44.0232 48.9175 37.4837C48.9175 37.0409 48.8837 36.6322 48.816 36.2234C50.2032 35.5422 51.2521 34.0436 51.2521 32.3065ZM22.3232 35.3379C22.3232 33.6689 23.6766 32.3065 25.3345 32.3065C26.9924 32.3065 28.3458 33.6689 28.3458 35.3379C28.3458 37.0068 26.9924 38.3692 25.3345 38.3692C23.6766 38.3692 22.3232 37.0068 22.3232 35.3379ZM39.1392 43.342C37.0752 45.4197 33.1504 45.5559 32 45.5559C30.8496 45.5559 26.8909 45.3856 24.8608 43.342C24.5563 43.0355 24.5563 42.5246 24.8608 42.218C25.1653 41.9115 25.6729 41.9115 25.9774 42.218C27.2631 43.5123 30.0376 43.9891 32.0338 43.9891C34.0301 43.9891 36.7707 43.5123 38.0903 42.218C38.3948 41.9115 38.9023 41.9115 39.2068 42.218C39.4437 42.5586 39.4437 43.0355 39.1392 43.342ZM38.5978 38.3692C36.9399 38.3692 35.5865 37.0068 35.5865 35.3379C35.5865 33.6689 36.9399 32.3065 38.5978 32.3065C40.2557 32.3065 41.6091 33.6689 41.6091 35.3379C41.6091 37.0068 40.2557 38.3692 38.5978 38.3692Z" fill="black"/>
</svg>
