<svg width="64" height="64" viewBox="0 0 64 64" fill="none" xmlns="http://www.w3.org/2000/svg">
<path fill-rule="evenodd" clip-rule="evenodd" d="M32 54C44.1503 54 54 44.1503 54 32C54 28.2292 53.0513 24.6801 51.3797 21.5781C50.8297 22.0743 50.2492 22.539 49.6408 22.9694C49.6602 23.3593 49.6691 23.7506 49.6691 24.1449C49.6691 36.1531 40.3249 50 23.2394 50C21.7457 50 20.2816 49.8779 18.8564 49.6438C22.5236 52.3801 27.0726 54 32 54ZM14.7938 45.7107C17.7548 45.1499 20.4676 43.9062 22.7531 42.1535C18.6894 42.0793 15.2588 39.4522 14.0766 35.8432C14.6446 35.9477 15.226 36.0032 15.8253 36.0032C16.6729 36.0032 17.4922 35.8938 18.2728 35.6846C14.023 34.8496 10.8215 31.178 10.8215 26.7747V26.6599C12.1115 27.3617 13.5544 27.7513 15.0297 27.796C13.5161 26.8065 12.3168 25.392 11.6083 23.7275C10.5712 26.2813 10 29.0739 10 32C10 37.1846 11.7934 41.9504 14.7938 45.7107ZM14.7427 18.3536C18.7722 13.2647 25.0048 10 32 10C38.2149 10 43.8279 12.577 47.8287 16.7208C47.5972 16.7744 47.3645 16.8237 47.1308 16.8686C45.4372 15.1026 43.0221 14 40.3502 14C35.2217 14 31.0624 18.0672 31.0624 23.0872C31.0624 23.7985 31.1443 24.4924 31.3017 25.1586C24.9235 24.8451 19.1431 22.3213 14.7427 18.3536ZM49.827 19.1054C49.5457 19.3163 49.2518 19.5117 48.9465 19.6906C49.3412 19.6445 49.7318 19.5865 50.1181 19.517C50.0226 19.3787 49.9255 19.2415 49.827 19.1054Z" fill="black"/>
</svg>
