<svg width="512" height="512" viewBox="0 0 512 512" fill="none" xmlns="http://www.w3.org/2000/svg">
<path d="M255.5 80C158.577 80 80 158.574 80 255.5C80 352.426 158.577 431 255.5 431C352.423 431 431 352.426 431 255.5C431 158.574 352.423 80 255.5 80ZM344.523 274.481C352.703 282.47 361.357 289.99 368.7 298.805C371.953 302.705 375.02 306.737 377.354 311.272C380.686 317.739 377.677 324.831 371.888 325.215L335.934 325.208C326.648 325.977 319.258 322.231 313.028 315.883C308.055 310.823 303.441 305.419 298.651 300.187C296.694 298.04 294.632 296.019 292.176 294.428C287.275 291.239 283.016 292.216 280.208 297.336C277.346 302.547 276.693 308.321 276.42 314.12C276.029 322.598 273.472 324.813 264.965 325.212C246.789 326.063 229.542 323.305 213.513 314.141C199.372 306.058 188.428 294.65 178.89 281.734C160.319 256.556 146.096 228.921 133.316 200.493C130.44 194.09 132.544 190.665 139.607 190.532C151.342 190.306 163.077 190.334 174.811 190.521C179.587 190.596 182.747 193.329 184.582 197.835C190.923 213.437 198.697 228.282 208.439 242.049C211.035 245.715 213.685 249.371 217.459 251.959C221.624 254.818 224.799 253.873 226.763 249.223C228.02 246.268 228.562 243.108 228.835 239.941C229.768 229.093 229.88 218.249 228.264 207.444C227.258 200.683 223.456 196.317 216.716 195.038C213.283 194.388 213.786 193.117 215.455 191.157C218.353 187.767 221.068 185.67 226.494 185.67L267.116 185.663C273.519 186.919 274.955 189.792 275.824 196.241L275.86 241.385C275.784 243.88 277.113 251.277 281.594 252.911C285.185 254.096 287.555 251.216 289.702 248.943C299.444 238.605 306.385 226.404 312.601 213.775C315.344 208.206 317.71 202.442 320.009 196.668C321.718 192.399 324.375 190.298 329.194 190.37L368.312 190.417C369.465 190.417 370.635 190.428 371.777 190.625C378.37 191.753 380.176 194.589 378.136 201.02C374.926 211.125 368.689 219.542 362.592 227.98C356.057 237.015 349.087 245.733 342.616 254.807C336.67 263.102 337.14 267.278 344.523 274.481Z" fill="black"/>
</svg>
